<svg id="svg" version="1.1" xmlns="http://www.w3.org/2000/svg" xmlns:xlink="http://www.w3.org/1999/xlink" width="400" height="68.11509101585438" viewBox="0, 0, 400,68.11509101585438"><g id="svgg"><path id="path0" d="M179.934 5.097 C 179.879 5.242,179.833 17.017,179.833 31.264 L 179.833 57.167 187.250 57.167 L 194.667 57.167 194.692 48.125 C 194.727 35.992,194.738 35.479,194.975 35.042 C 195.087 34.835,195.137 34.667,195.086 34.667 C 194.907 34.667,195.642 33.411,196.152 32.845 C 196.435 32.531,196.667 32.330,196.667 32.399 C 196.667 32.467,196.785 32.406,196.929 32.262 C 197.374 31.816,199.358 31.816,200.361 32.262 C 201.105 32.593,201.660 33.128,202.137 33.976 C 202.286 34.241,202.294 34.329,202.162 34.247 C 202.017 34.157,202.011 34.210,202.142 34.454 C 202.532 35.183,202.571 36.151,202.609 46.083 C 202.630 51.767,202.652 56.585,202.657 56.792 L 202.667 57.167 209.840 57.167 L 217.014 57.167 216.940 45.292 C 216.899 38.760,216.823 33.165,216.772 32.858 C 216.720 32.550,216.663 31.988,216.645 31.608 C 216.627 31.228,216.570 30.842,216.519 30.750 C 216.467 30.658,216.405 30.396,216.380 30.167 C 216.309 29.498,215.763 27.833,215.615 27.833 C 215.541 27.833,215.527 27.758,215.583 27.667 C 215.640 27.575,215.602 27.500,215.500 27.500 C 215.398 27.500,215.357 27.430,215.410 27.345 C 215.462 27.260,215.428 27.142,215.333 27.083 C 215.239 27.025,215.204 26.907,215.257 26.822 C 215.310 26.736,215.274 26.667,215.177 26.667 C 215.079 26.667,215.000 26.554,215.000 26.417 C 215.000 26.279,214.921 26.167,214.823 26.167 C 214.726 26.167,214.687 26.101,214.737 26.022 C 214.786 25.942,214.678 25.705,214.497 25.496 C 214.315 25.287,214.167 25.068,214.167 25.009 C 214.167 24.807,212.896 23.500,212.698 23.500 C 212.589 23.500,212.500 23.425,212.500 23.333 C 212.500 23.242,212.402 23.167,212.281 23.167 C 212.161 23.167,211.852 22.947,211.595 22.679 C 211.339 22.411,211.034 22.228,210.919 22.272 C 210.804 22.316,210.589 22.232,210.441 22.084 C 210.293 21.936,210.021 21.786,209.836 21.750 C 209.650 21.715,209.412 21.632,209.307 21.567 C 209.201 21.502,208.921 21.419,208.683 21.383 C 208.445 21.347,207.950 21.271,207.583 21.214 C 206.680 21.075,203.291 21.024,203.083 21.146 C 202.992 21.201,202.860 21.255,202.792 21.268 C 202.723 21.281,202.648 21.309,202.625 21.330 C 202.602 21.352,202.396 21.385,202.167 21.405 C 201.470 21.466,200.792 21.701,199.899 22.191 C 199.430 22.448,198.999 22.610,198.940 22.551 C 198.881 22.493,198.833 22.519,198.833 22.611 C 198.833 22.702,198.459 23.020,198.002 23.316 C 197.545 23.612,197.069 23.999,196.945 24.176 C 196.821 24.353,196.671 24.448,196.610 24.388 C 196.550 24.327,196.500 24.405,196.500 24.560 C 196.500 24.715,196.313 24.913,196.083 25.000 C 195.854 25.087,195.667 25.269,195.667 25.404 C 195.667 25.539,195.568 25.710,195.448 25.783 C 195.328 25.857,195.102 26.104,194.946 26.332 C 194.677 26.725,194.664 26.162,194.706 15.876 C 194.742 6.945,194.710 4.988,194.528 4.918 C 193.876 4.668,180.034 4.838,179.934 5.097 M55.908 5.146 C 55.821 5.226,55.375 5.497,54.917 5.748 C 54.458 5.999,53.571 6.502,52.944 6.868 C 52.317 7.233,51.492 7.678,51.111 7.857 C 50.729 8.036,49.787 8.554,49.017 9.008 C 48.247 9.462,47.563 9.833,47.496 9.833 C 47.166 9.833,46.994 10.304,47.236 10.546 C 47.373 10.682,47.438 10.840,47.381 10.897 C 47.324 10.954,51.308 11.000,56.234 11.000 C 65.918 11.000,65.706 11.020,65.632 10.121 C 65.607 9.821,65.521 9.736,65.299 9.794 C 65.135 9.837,65.000 9.794,65.000 9.697 C 65.000 9.601,64.831 9.470,64.625 9.405 C 64.419 9.341,64.212 9.242,64.165 9.186 C 64.119 9.129,63.632 8.843,63.082 8.550 C 62.533 8.257,62.101 7.941,62.123 7.848 C 62.145 7.755,62.048 7.723,61.908 7.776 C 61.769 7.830,61.526 7.764,61.369 7.629 C 61.212 7.494,60.947 7.336,60.781 7.277 C 60.615 7.217,60.525 7.094,60.581 7.003 C 60.643 6.904,60.569 6.881,60.398 6.947 C 60.189 7.027,60.149 6.998,60.248 6.836 C 60.341 6.686,60.321 6.655,60.186 6.738 C 60.072 6.809,59.285 6.464,58.343 5.931 C 56.731 5.017,56.225 4.854,55.908 5.146 M135.000 32.458 L 135.000 57.167 142.500 57.167 L 150.000 57.167 150.000 49.250 L 150.000 41.333 150.708 41.322 C 155.622 41.243,157.877 41.178,158.500 41.099 C 159.757 40.938,160.366 40.833,160.495 40.753 C 160.563 40.711,160.927 40.638,161.303 40.591 C 162.044 40.498,164.552 39.669,165.292 39.273 C 165.544 39.139,166.260 38.793,166.884 38.505 C 167.507 38.217,168.059 37.873,168.110 37.742 C 168.160 37.610,168.269 37.543,168.351 37.594 C 168.433 37.645,168.500 37.594,168.500 37.482 C 168.500 37.370,168.549 37.327,168.608 37.386 C 168.668 37.446,168.893 37.304,169.108 37.072 C 169.324 36.840,169.500 36.694,169.500 36.748 C 169.500 36.802,169.664 36.693,169.865 36.506 C 170.065 36.320,170.295 36.167,170.375 36.167 C 170.454 36.167,170.473 36.092,170.417 36.000 C 170.360 35.908,170.435 35.833,170.583 35.833 C 170.732 35.833,170.807 35.758,170.750 35.667 C 170.693 35.575,170.726 35.500,170.823 35.500 C 170.921 35.500,171.150 35.350,171.333 35.167 C 171.517 34.983,171.621 34.833,171.566 34.833 C 171.510 34.833,171.706 34.608,172.000 34.333 C 172.294 34.058,172.490 33.833,172.434 33.833 C 172.379 33.833,172.486 33.681,172.673 33.494 C 172.859 33.307,172.974 33.092,172.927 33.016 C 172.880 32.940,172.989 32.744,173.171 32.580 C 173.352 32.416,173.500 32.196,173.500 32.091 C 173.500 31.986,173.594 31.806,173.708 31.692 C 173.823 31.577,173.923 31.431,173.931 31.367 C 173.950 31.214,174.141 30.721,174.456 30.012 C 175.468 27.738,175.815 20.429,174.961 19.375 C 174.868 19.260,174.834 19.167,174.886 19.167 C 175.189 19.167,174.012 15.942,173.334 14.917 C 173.152 14.642,172.952 14.304,172.889 14.167 C 172.826 14.029,172.729 13.879,172.673 13.833 C 172.617 13.787,172.418 13.549,172.229 13.303 C 171.066 11.786,167.546 9.531,165.865 9.226 C 165.636 9.185,165.310 9.077,165.141 8.986 C 164.972 8.896,164.833 8.871,164.833 8.931 C 164.833 8.991,164.740 8.964,164.625 8.870 C 164.510 8.775,164.135 8.654,163.792 8.599 C 163.448 8.545,162.885 8.448,162.542 8.385 C 162.198 8.322,161.710 8.265,161.458 8.260 C 161.206 8.254,161.000 8.195,161.000 8.127 C 161.000 8.059,160.831 8.008,160.625 8.013 C 160.419 8.018,159.313 7.984,158.167 7.937 C 157.021 7.891,151.340 7.830,145.542 7.801 L 135.000 7.750 135.000 32.458 M25.371 9.539 L 24.992 9.721 25.004 15.069 L 25.017 20.417 25.467 20.395 C 25.714 20.383,26.029 20.330,26.167 20.277 C 26.304 20.225,26.773 20.197,27.208 20.216 C 27.644 20.235,28.000 20.185,28.000 20.106 C 28.000 20.026,28.188 19.997,28.417 20.041 C 28.646 20.085,28.833 20.063,28.833 19.993 C 28.833 19.923,29.190 19.863,29.626 19.859 C 30.062 19.856,30.755 19.779,31.167 19.689 C 31.580 19.598,32.235 19.538,32.625 19.554 C 33.015 19.570,33.333 19.536,33.333 19.477 C 33.333 19.355,34.575 19.142,35.667 19.078 C 36.079 19.053,36.885 18.941,37.457 18.829 C 38.286 18.665,38.548 18.666,38.749 18.832 C 38.887 18.947,39.000 18.969,39.000 18.880 C 39.000 18.681,41.253 18.264,41.501 18.417 C 41.600 18.478,41.775 18.451,41.889 18.357 C 42.003 18.262,42.442 18.199,42.866 18.217 C 43.289 18.235,43.596 18.187,43.549 18.110 C 43.501 18.034,43.677 17.993,43.940 18.021 C 44.202 18.049,44.492 18.026,44.583 17.971 C 44.735 17.879,45.246 17.833,46.792 17.772 C 47.090 17.760,47.333 17.700,47.333 17.640 C 47.333 17.579,47.776 17.542,48.318 17.557 C 48.859 17.571,49.272 17.536,49.236 17.477 C 49.200 17.419,49.582 17.320,50.085 17.257 L 51.000 17.143 51.000 14.988 C 51.000 12.924,50.986 12.833,50.657 12.833 C 50.468 12.833,50.352 12.771,50.399 12.695 C 50.446 12.619,50.100 12.580,49.630 12.608 C 49.160 12.636,48.679 12.579,48.561 12.482 C 48.444 12.384,48.274 12.350,48.184 12.406 C 47.971 12.538,46.651 12.327,46.744 12.176 C 46.784 12.112,46.594 12.093,46.323 12.133 C 45.694 12.225,43.972 12.014,44.069 11.856 C 44.110 11.790,43.879 11.767,43.555 11.805 C 43.231 11.843,42.430 11.789,41.775 11.685 C 41.120 11.582,40.230 11.463,39.798 11.421 C 38.312 11.278,36.835 10.966,36.928 10.815 C 36.979 10.732,36.816 10.758,36.566 10.872 C 36.223 11.028,36.094 11.031,36.045 10.885 C 36.004 10.762,35.770 10.725,35.407 10.784 C 35.076 10.838,34.833 10.807,34.833 10.712 C 34.833 10.621,34.635 10.584,34.392 10.631 C 34.048 10.696,33.980 10.663,34.083 10.482 C 34.190 10.295,34.173 10.290,33.991 10.458 C 33.747 10.685,33.167 10.743,33.165 10.542 C 33.165 10.473,32.735 10.404,32.211 10.388 C 31.681 10.372,31.231 10.277,31.196 10.173 C 31.151 10.035,31.075 10.036,30.908 10.174 C 30.657 10.382,30.272 10.234,30.424 9.988 C 30.477 9.903,30.371 9.833,30.190 9.833 C 30.009 9.833,29.836 9.907,29.806 9.998 C 29.736 10.204,27.643 9.845,27.446 9.593 C 27.352 9.472,27.281 9.483,27.223 9.625 C 27.129 9.858,26.500 9.914,26.500 9.690 C 26.500 9.611,26.301 9.584,26.059 9.631 C 25.754 9.689,25.654 9.656,25.735 9.524 C 25.874 9.300,25.865 9.300,25.371 9.539 M85.333 9.638 C 85.333 9.860,83.102 10.222,83.031 10.011 C 82.999 9.913,82.824 9.833,82.643 9.833 C 82.462 9.833,82.357 9.903,82.410 9.988 C 82.556 10.226,82.163 10.396,81.952 10.185 C 81.732 9.965,81.441 9.936,81.572 10.148 C 81.687 10.334,80.322 10.549,79.946 10.405 C 79.792 10.346,79.667 10.375,79.667 10.470 C 79.667 10.571,79.319 10.628,78.833 10.608 C 78.375 10.589,78.000 10.640,78.000 10.722 C 78.000 10.804,77.775 10.838,77.500 10.798 C 77.225 10.757,77.000 10.786,77.000 10.862 C 77.000 10.938,76.719 11.000,76.375 11.001 C 76.031 11.001,75.300 11.078,74.750 11.172 C 74.200 11.265,73.375 11.378,72.917 11.421 C 72.458 11.465,71.590 11.586,70.987 11.689 C 70.384 11.792,69.616 11.844,69.281 11.805 C 68.946 11.766,68.648 11.805,68.619 11.892 C 68.590 11.979,67.988 12.073,67.280 12.100 C 66.572 12.128,65.917 12.199,65.823 12.256 C 65.729 12.314,65.374 12.385,65.035 12.414 C 64.695 12.442,64.304 12.507,64.167 12.558 C 64.029 12.608,63.579 12.635,63.167 12.617 C 62.033 12.566,61.983 12.676,62.037 15.093 L 62.083 17.199 63.000 17.270 C 63.504 17.309,63.935 17.396,63.958 17.462 C 63.981 17.529,64.319 17.568,64.708 17.550 C 65.098 17.531,65.867 17.597,66.417 17.695 C 66.967 17.793,67.660 17.867,67.958 17.859 C 68.256 17.850,68.500 17.901,68.500 17.972 C 68.500 18.042,68.781 18.104,69.125 18.110 C 70.488 18.134,71.176 18.213,71.264 18.356 C 71.315 18.438,71.434 18.457,71.529 18.399 C 71.790 18.237,74.166 18.687,74.169 18.899 C 74.171 19.000,74.237 18.980,74.318 18.853 C 74.439 18.662,74.646 18.656,75.524 18.817 C 76.106 18.925,76.921 19.038,77.333 19.068 C 78.500 19.156,79.667 19.360,79.667 19.478 C 79.667 19.536,80.042 19.567,80.500 19.547 C 80.958 19.527,81.333 19.564,81.333 19.630 C 81.333 19.750,81.432 19.761,83.208 19.830 C 83.735 19.851,84.167 19.925,84.167 19.994 C 84.167 20.064,84.354 20.085,84.583 20.041 C 84.813 19.997,85.000 20.026,85.000 20.106 C 85.000 20.185,85.414 20.241,85.920 20.229 C 86.425 20.218,86.876 20.267,86.920 20.338 C 86.964 20.410,87.148 20.430,87.329 20.383 C 87.647 20.300,87.659 20.112,87.704 14.916 L 87.750 9.535 87.250 9.597 C 86.975 9.632,86.551 9.703,86.308 9.756 C 86.064 9.809,85.816 9.773,85.756 9.676 C 85.627 9.467,85.333 9.441,85.333 9.638 M155.331 18.880 C 156.874 19.342,157.488 19.694,158.269 20.567 C 158.646 20.989,158.918 21.333,158.874 21.333 C 158.829 21.333,158.880 21.438,158.986 21.566 C 159.340 21.993,159.639 24.051,159.566 25.557 C 159.519 26.508,158.916 28.067,158.374 28.638 C 158.258 28.760,158.206 28.928,158.257 29.012 C 158.309 29.095,158.234 29.118,158.092 29.064 C 157.924 28.999,157.833 29.059,157.833 29.232 C 157.833 29.379,157.721 29.500,157.583 29.500 C 157.446 29.500,157.333 29.575,157.333 29.667 C 157.333 29.758,157.277 29.818,157.208 29.799 C 157.140 29.780,156.849 29.890,156.563 30.042 C 156.277 30.195,156.006 30.283,155.961 30.239 C 155.916 30.194,155.663 30.240,155.398 30.342 C 155.133 30.444,153.829 30.537,152.500 30.550 L 150.083 30.574 150.040 24.525 L 149.996 18.476 152.120 18.516 C 153.647 18.545,154.550 18.647,155.331 18.880 M56.383 18.997 C 49.895 19.056,46.792 19.141,46.670 19.263 C 46.483 19.450,46.325 20.653,46.490 20.637 C 46.541 20.631,47.063 20.636,47.648 20.647 L 48.713 20.667 48.587 21.542 C 48.518 22.023,48.464 22.604,48.468 22.833 C 48.471 23.063,48.373 23.735,48.250 24.328 C 48.126 24.921,48.056 25.456,48.094 25.518 C 48.197 25.684,47.806 27.500,47.668 27.500 C 47.603 27.500,47.585 27.875,47.629 28.333 C 47.673 28.792,47.643 29.167,47.563 29.168 C 47.482 29.169,47.398 29.563,47.374 30.043 C 47.337 30.812,47.260 31.403,47.161 31.667 C 47.144 31.712,47.143 31.919,47.160 32.125 C 47.177 32.331,47.102 32.500,46.994 32.500 C 46.881 32.500,46.842 32.615,46.902 32.772 C 47.042 33.137,46.836 34.188,46.647 34.071 C 46.565 34.020,46.584 34.169,46.690 34.401 C 46.831 34.710,46.833 34.883,46.698 35.045 C 46.597 35.167,46.557 35.432,46.610 35.634 C 46.662 35.835,46.629 36.000,46.535 36.000 C 46.441 36.000,46.407 36.162,46.459 36.359 C 46.527 36.620,46.495 36.683,46.343 36.589 C 46.177 36.487,46.174 36.536,46.330 36.826 C 46.437 37.028,46.472 37.318,46.407 37.471 C 46.342 37.625,46.270 38.085,46.247 38.493 C 46.225 38.902,46.119 39.266,46.013 39.301 C 45.874 39.348,45.870 39.427,45.998 39.581 C 46.125 39.734,46.123 40.030,45.993 40.606 C 45.891 41.052,45.743 42.048,45.662 42.819 C 45.581 43.590,45.455 44.265,45.382 44.319 C 45.310 44.373,45.237 44.940,45.222 45.579 C 45.206 46.238,45.116 46.767,45.014 46.801 C 44.915 46.834,44.877 47.034,44.930 47.246 C 44.984 47.457,44.953 47.676,44.862 47.732 C 44.772 47.788,44.740 47.995,44.792 48.193 C 44.859 48.450,44.827 48.516,44.681 48.425 C 44.531 48.333,44.535 48.394,44.696 48.654 C 44.878 48.947,44.878 49.034,44.699 49.146 C 44.553 49.237,44.519 49.436,44.598 49.749 C 44.670 50.036,44.653 50.178,44.554 50.117 C 44.460 50.058,44.423 50.219,44.466 50.509 C 44.515 50.847,44.467 51.001,44.311 51.003 C 44.123 51.005,44.124 51.031,44.316 51.152 C 44.467 51.248,44.503 51.407,44.419 51.608 C 44.347 51.778,44.258 52.254,44.220 52.667 C 44.182 53.079,44.133 53.604,44.111 53.833 C 44.086 54.088,43.981 54.230,43.840 54.199 C 43.653 54.157,43.649 54.195,43.821 54.401 C 44.036 54.661,43.919 56.072,43.694 55.933 C 43.633 55.896,43.593 56.308,43.604 56.849 C 43.615 57.390,43.566 57.833,43.495 57.833 C 43.423 57.833,43.404 57.983,43.452 58.167 C 43.500 58.350,43.474 58.500,43.394 58.500 C 43.315 58.500,43.262 58.819,43.276 59.208 C 43.311 60.182,42.980 62.007,42.789 61.889 C 42.703 61.836,42.708 61.933,42.801 62.107 C 42.995 62.469,42.870 63.359,42.600 63.539 C 42.499 63.606,48.652 63.663,56.274 63.664 C 68.439 63.666,70.143 63.636,70.227 63.417 C 70.280 63.279,70.262 63.167,70.188 63.167 C 70.114 63.167,70.034 62.810,70.010 62.375 C 69.987 61.940,69.957 61.377,69.942 61.125 C 69.928 60.873,69.869 60.667,69.810 60.667 C 69.751 60.667,69.716 60.310,69.731 59.875 C 69.747 59.440,69.702 59.002,69.632 58.902 C 69.562 58.803,69.470 58.390,69.428 57.985 C 69.387 57.581,69.340 57.250,69.325 57.250 C 69.309 57.250,69.277 57.025,69.253 56.750 C 69.229 56.475,69.117 55.809,69.005 55.270 C 68.837 54.463,68.840 54.265,69.025 54.147 C 69.149 54.069,69.170 54.004,69.072 54.003 C 68.766 53.998,68.410 51.826,68.687 51.651 C 68.813 51.571,68.837 51.504,68.739 51.503 C 68.533 51.500,68.085 49.434,68.237 49.188 C 68.293 49.097,68.259 48.974,68.161 48.913 C 68.064 48.853,68.002 48.679,68.025 48.527 C 68.047 48.375,67.967 47.632,67.846 46.878 C 67.726 46.123,67.662 45.319,67.706 45.091 C 67.753 44.843,67.719 44.718,67.620 44.779 C 67.519 44.841,67.485 44.679,67.531 44.361 C 67.574 44.074,67.528 43.812,67.429 43.776 C 67.307 43.731,67.316 43.598,67.460 43.355 C 67.617 43.089,67.620 43.010,67.472 43.041 C 67.279 43.082,67.245 42.911,67.135 41.333 C 67.107 40.921,67.008 40.529,66.917 40.463 C 66.808 40.385,66.823 40.226,66.958 40.007 C 67.073 39.822,67.166 39.614,67.164 39.544 C 67.163 39.474,67.099 39.516,67.022 39.637 C 66.930 39.782,66.845 39.591,66.775 39.078 C 66.716 38.650,66.710 38.232,66.761 38.149 C 66.811 38.067,66.779 38.000,66.688 38.000 C 66.597 38.000,66.539 37.628,66.558 37.168 C 66.578 36.711,66.528 36.315,66.449 36.289 C 66.369 36.262,66.292 35.905,66.277 35.495 C 66.262 35.085,66.196 34.709,66.129 34.659 C 66.062 34.609,65.987 34.028,65.962 33.368 C 65.937 32.708,65.871 32.167,65.815 32.167 C 65.759 32.167,65.670 31.735,65.617 31.208 C 65.564 30.681,65.438 29.628,65.337 28.869 C 65.237 28.109,65.199 27.415,65.254 27.327 C 65.308 27.239,65.282 27.167,65.195 27.167 C 64.975 27.167,64.842 26.142,65.019 25.805 C 65.106 25.638,65.099 25.505,65.003 25.472 C 64.914 25.441,64.821 25.061,64.796 24.626 C 64.771 24.191,64.694 23.835,64.625 23.834 C 64.416 23.833,64.486 23.367,64.708 23.277 C 64.869 23.211,64.864 23.155,64.686 23.030 C 64.545 22.932,64.487 22.698,64.537 22.434 C 64.583 22.195,64.565 22.000,64.498 22.000 C 64.321 22.000,64.139 20.961,64.290 20.812 C 64.359 20.742,64.907 20.670,65.507 20.651 C 66.531 20.618,66.600 20.591,66.632 20.212 C 66.675 19.691,66.392 19.167,66.068 19.167 C 65.928 19.167,65.860 19.092,65.917 19.000 C 65.973 18.908,65.996 18.851,65.968 18.872 C 65.940 18.894,61.627 18.950,56.383 18.997 M108.527 21.189 C 108.329 21.263,108.167 21.278,108.167 21.224 C 108.167 21.170,108.073 21.200,107.958 21.290 C 107.844 21.381,107.563 21.437,107.333 21.415 C 107.104 21.393,106.798 21.437,106.654 21.512 C 106.509 21.586,106.209 21.674,105.987 21.706 C 105.765 21.739,105.426 21.852,105.234 21.958 C 105.042 22.064,104.679 22.188,104.428 22.234 C 104.177 22.279,103.884 22.383,103.777 22.464 C 103.671 22.546,103.133 22.789,102.583 23.004 C 102.033 23.220,101.463 23.531,101.316 23.695 C 101.170 23.860,101.008 23.952,100.957 23.901 C 100.906 23.850,100.676 23.972,100.447 24.171 C 100.218 24.371,99.986 24.527,99.932 24.517 C 99.878 24.508,99.699 24.631,99.534 24.792 C 99.370 24.952,99.033 25.232,98.784 25.415 C 98.536 25.597,98.333 25.840,98.333 25.956 C 98.333 26.072,98.259 26.167,98.168 26.167 C 98.020 26.167,97.594 26.577,96.697 27.583 C 96.168 28.176,95.614 29.035,95.047 30.142 C 94.743 30.737,94.426 31.305,94.344 31.404 C 94.262 31.503,94.196 31.643,94.198 31.715 C 94.200 31.788,94.125 32.051,94.031 32.299 C 93.740 33.069,93.123 35.229,93.070 35.667 C 93.041 35.896,92.988 36.353,92.951 36.683 C 92.914 37.013,92.846 37.351,92.800 37.433 C 92.690 37.628,92.760 42.981,92.878 43.417 C 92.927 43.600,93.022 44.163,93.088 44.667 C 93.154 45.171,93.253 45.658,93.308 45.750 C 93.363 45.842,93.423 46.022,93.443 46.150 C 93.462 46.278,93.539 46.428,93.614 46.483 C 93.739 46.575,93.772 46.711,93.870 47.542 C 93.889 47.702,93.968 47.833,94.045 47.833 C 94.123 47.833,94.144 47.902,94.092 47.986 C 94.040 48.070,94.077 48.165,94.175 48.197 C 94.272 48.230,94.372 48.367,94.398 48.503 C 94.485 48.966,94.916 49.749,95.250 50.054 C 95.433 50.222,95.471 50.301,95.333 50.229 C 95.196 50.158,95.305 50.396,95.576 50.758 C 95.848 51.120,96.129 51.442,96.202 51.473 C 96.276 51.503,96.293 51.597,96.241 51.681 C 96.189 51.765,96.276 51.833,96.435 51.833 C 96.593 51.833,96.681 51.874,96.632 51.924 C 95.932 52.623,102.434 56.650,105.000 57.107 C 105.229 57.148,105.679 57.259,106.000 57.355 C 106.321 57.450,106.882 57.565,107.246 57.610 C 107.611 57.654,108.211 57.745,108.580 57.811 C 108.948 57.877,109.681 57.928,110.208 57.924 C 110.735 57.920,111.167 57.957,111.167 58.006 C 111.167 58.215,116.076 57.987,117.250 57.723 C 117.433 57.682,117.996 57.621,118.500 57.588 C 119.004 57.555,119.629 57.447,119.889 57.346 C 120.149 57.246,120.425 57.204,120.502 57.252 C 120.580 57.300,120.691 57.261,120.750 57.167 C 120.809 57.072,120.929 57.040,121.019 57.095 C 121.108 57.150,121.272 57.128,121.382 57.046 C 121.493 56.964,121.696 56.906,121.833 56.917 C 121.971 56.929,122.203 56.881,122.349 56.811 C 122.495 56.740,122.795 56.645,123.016 56.600 C 123.236 56.555,123.808 56.382,124.287 56.217 L 125.156 55.917 125.160 51.208 C 125.162 48.619,125.106 46.500,125.035 46.500 C 124.965 46.500,124.751 46.610,124.559 46.744 C 124.367 46.878,124.163 46.941,124.105 46.883 C 124.047 46.825,124.000 46.863,124.000 46.967 C 124.000 47.072,123.881 47.111,123.733 47.054 C 123.586 46.998,123.408 47.046,123.336 47.162 C 123.265 47.278,122.878 47.409,122.478 47.454 C 122.078 47.499,121.667 47.603,121.566 47.685 C 121.464 47.767,121.127 47.872,120.816 47.918 C 120.505 47.964,120.063 48.042,119.833 48.091 C 117.975 48.487,112.185 48.415,111.758 47.991 C 111.671 47.904,111.432 47.833,111.227 47.833 C 111.021 47.833,110.810 47.763,110.756 47.677 C 110.703 47.591,110.509 47.549,110.325 47.585 C 110.142 47.620,110.030 47.586,110.078 47.509 C 110.155 47.384,109.785 47.136,109.464 47.098 C 109.398 47.090,109.205 46.971,109.034 46.833 C 108.863 46.696,108.580 46.500,108.403 46.399 C 108.227 46.297,108.083 46.147,108.083 46.065 C 108.082 45.983,107.886 45.654,107.646 45.333 C 107.406 45.012,107.209 44.637,107.208 44.500 C 107.207 44.362,107.147 44.107,107.075 43.931 C 106.946 43.618,107.153 43.614,117.884 43.715 L 128.825 43.818 128.759 40.200 C 128.723 38.211,128.681 36.583,128.667 36.583 C 128.636 36.583,128.548 35.356,128.519 34.532 C 128.506 34.142,128.439 34.015,128.292 34.098 C 128.131 34.189,128.128 34.167,128.280 34.003 C 128.403 33.870,128.422 33.690,128.330 33.520 C 128.155 33.196,127.733 31.796,127.582 31.042 C 127.522 30.744,127.414 30.500,127.342 30.500 C 127.269 30.500,127.115 30.162,127.000 29.750 C 126.885 29.337,126.725 29.000,126.645 29.000 C 126.565 29.000,126.500 28.899,126.500 28.775 C 126.500 28.651,126.275 28.239,126.000 27.860 C 125.725 27.480,125.500 27.124,125.500 27.068 C 125.500 27.013,125.275 26.757,125.000 26.500 C 124.725 26.243,124.500 25.959,124.500 25.868 C 124.500 25.697,124.013 25.427,123.792 25.474 C 123.723 25.488,123.684 25.444,123.705 25.375 C 123.783 25.126,123.114 24.531,122.865 24.626 C 122.700 24.690,122.654 24.656,122.733 24.528 C 122.806 24.409,122.702 24.274,122.468 24.184 C 122.257 24.102,121.905 23.879,121.687 23.688 C 121.469 23.497,121.225 23.381,121.145 23.430 C 121.065 23.479,121.000 23.438,121.000 23.339 C 121.000 23.240,120.812 23.087,120.583 23.000 C 119.934 22.753,118.615 22.173,118.285 21.989 C 118.121 21.897,117.914 21.867,117.827 21.921 C 117.739 21.975,117.667 21.956,117.667 21.879 C 117.667 21.749,117.381 21.689,116.621 21.658 C 116.459 21.652,116.358 21.595,116.397 21.532 C 116.436 21.468,116.307 21.409,116.109 21.400 C 115.446 21.370,114.572 21.231,114.407 21.129 C 114.166 20.980,108.948 21.033,108.527 21.189 M237.157 21.065 C 237.116 21.105,236.521 21.183,235.833 21.239 C 235.146 21.294,234.358 21.379,234.083 21.427 C 233.808 21.475,233.415 21.512,233.208 21.509 C 233.002 21.506,232.833 21.574,232.833 21.661 C 232.833 21.747,232.571 21.784,232.250 21.743 C 231.910 21.700,231.667 21.741,231.667 21.842 C 231.667 21.937,231.573 22.000,231.458 21.982 C 231.009 21.911,229.500 22.219,229.500 22.383 C 229.500 22.478,229.458 22.514,229.407 22.462 C 229.355 22.411,228.924 22.477,228.448 22.610 C 227.973 22.742,227.358 22.892,227.083 22.942 C 226.808 22.992,226.528 23.119,226.461 23.225 C 226.394 23.330,226.337 23.345,226.336 23.258 C 226.334 23.171,226.243 23.190,226.133 23.300 C 226.023 23.410,225.765 23.500,225.560 23.500 C 225.354 23.500,225.139 23.576,225.082 23.669 C 225.024 23.763,224.917 23.802,224.844 23.756 C 224.770 23.711,224.719 25.821,224.730 28.446 C 224.751 33.536,224.807 33.836,225.580 33.063 C 225.713 32.930,225.843 32.836,225.869 32.854 C 226.035 32.968,227.151 32.442,227.059 32.294 C 226.998 32.196,227.024 32.162,227.117 32.219 C 227.258 32.306,228.653 31.857,229.917 31.316 C 230.100 31.238,230.438 31.139,230.667 31.096 C 230.896 31.054,231.327 30.945,231.625 30.855 C 231.923 30.764,232.167 30.720,232.167 30.758 C 232.167 30.795,232.364 30.750,232.606 30.658 C 232.848 30.566,233.354 30.460,233.731 30.422 C 234.108 30.385,234.717 30.303,235.083 30.240 C 236.091 30.069,237.660 30.060,238.500 30.221 C 238.912 30.300,239.490 30.387,239.784 30.413 C 240.078 30.440,240.446 30.589,240.602 30.745 C 240.758 30.900,241.051 31.091,241.255 31.168 C 241.815 31.381,242.790 32.674,242.895 33.343 L 242.988 33.936 242.286 33.986 C 241.899 34.014,241.471 34.036,241.333 34.035 C 241.196 34.034,240.821 34.099,240.500 34.178 C 240.179 34.258,239.467 34.358,238.917 34.400 C 238.367 34.442,237.729 34.519,237.500 34.571 C 236.921 34.703,235.681 34.880,235.083 34.917 C 234.808 34.934,234.546 34.964,234.500 34.983 C 234.379 35.035,233.148 35.181,232.705 35.196 C 232.497 35.203,232.286 35.275,232.235 35.357 C 232.185 35.439,232.074 35.462,231.988 35.410 C 231.903 35.357,231.833 35.386,231.833 35.475 C 231.833 35.563,231.691 35.598,231.517 35.553 C 231.343 35.507,231.033 35.560,230.827 35.670 C 230.622 35.780,230.222 35.906,229.937 35.951 C 229.653 35.996,229.223 36.135,228.981 36.260 C 228.740 36.385,228.495 36.440,228.438 36.382 C 228.380 36.325,228.333 36.378,228.333 36.500 C 228.333 36.622,228.283 36.672,228.222 36.611 C 228.161 36.549,227.973 36.624,227.805 36.775 C 227.637 36.927,227.500 36.997,227.500 36.931 C 227.500 36.864,227.381 36.928,227.237 37.073 C 227.092 37.218,226.916 37.301,226.845 37.257 C 226.775 37.214,226.556 37.329,226.359 37.512 C 226.161 37.696,226.000 37.806,226.000 37.758 C 226.000 37.639,225.244 38.274,224.509 39.010 C 223.793 39.727,223.000 40.667,223.110 40.667 C 223.154 40.667,223.073 40.785,222.929 40.929 C 222.785 41.073,222.667 41.335,222.667 41.512 C 222.667 41.689,222.592 41.833,222.500 41.833 C 222.408 41.833,222.349 41.890,222.369 41.958 C 222.388 42.027,222.316 42.241,222.209 42.434 C 222.102 42.627,221.979 43.077,221.936 43.434 C 221.892 43.791,221.842 44.102,221.824 44.125 C 221.806 44.148,221.782 44.235,221.771 44.319 C 221.759 44.403,221.694 44.528,221.625 44.597 C 221.400 44.822,221.486 49.041,221.736 50.003 C 221.865 50.502,221.941 50.960,221.904 51.020 C 221.867 51.080,221.949 51.222,222.085 51.335 C 222.222 51.448,222.333 51.642,222.333 51.765 C 222.333 52.767,225.270 56.500,226.058 56.500 C 226.187 56.500,226.387 56.614,226.503 56.754 C 226.619 56.894,226.754 56.969,226.802 56.920 C 226.850 56.872,227.027 56.957,227.195 57.109 C 227.363 57.261,227.500 57.338,227.500 57.280 C 227.500 57.222,227.706 57.255,227.958 57.354 C 228.879 57.712,230.081 57.967,230.617 57.918 C 230.919 57.889,231.167 57.915,231.167 57.975 C 231.167 58.222,234.879 57.934,234.966 57.679 C 234.994 57.600,235.146 57.569,235.305 57.611 C 235.463 57.652,235.816 57.592,236.088 57.477 C 236.361 57.362,236.658 57.261,236.750 57.251 C 236.842 57.242,237.076 57.147,237.270 57.040 C 237.464 56.933,237.668 56.891,237.724 56.946 C 237.780 57.002,237.873 56.924,237.931 56.774 C 237.988 56.623,238.178 56.500,238.351 56.500 C 238.525 56.500,238.667 56.421,238.667 56.323 C 238.667 56.226,238.742 56.193,238.833 56.250 C 238.925 56.307,239.000 56.261,239.000 56.149 C 239.000 56.036,239.042 55.986,239.093 56.038 C 239.218 56.163,241.833 53.590,241.833 53.342 C 241.833 53.235,241.896 53.186,241.972 53.233 C 242.048 53.280,242.213 53.056,242.339 52.734 C 242.884 51.347,243.000 51.654,243.000 54.480 L 243.000 57.167 249.761 57.167 L 256.522 57.167 256.489 46.125 C 256.471 40.052,256.415 35.013,256.365 34.927 C 256.315 34.841,256.256 34.503,256.234 34.177 C 256.197 33.625,255.994 32.433,255.737 31.250 C 255.677 30.975,255.624 30.656,255.619 30.542 C 255.615 30.427,255.551 30.333,255.477 30.333 C 255.404 30.333,255.387 30.221,255.440 30.083 C 255.492 29.946,255.462 29.833,255.373 29.833 C 255.283 29.833,255.219 29.702,255.229 29.542 C 255.256 29.130,254.703 27.833,254.501 27.833 C 254.409 27.833,254.333 27.720,254.333 27.581 C 254.333 26.789,251.757 24.006,250.500 23.441 C 250.271 23.338,249.984 23.159,249.863 23.044 C 249.742 22.928,249.498 22.833,249.321 22.833 C 249.145 22.833,249.000 22.773,249.000 22.699 C 249.000 22.577,246.917 21.815,246.333 21.724 C 245.516 21.596,245.073 21.519,245.000 21.492 C 244.954 21.475,244.875 21.465,244.823 21.470 C 244.772 21.475,244.434 21.409,244.073 21.323 C 243.399 21.163,237.288 20.935,237.157 21.065 M309.285 21.104 C 309.225 21.164,308.190 21.356,307.652 21.406 C 306.911 21.475,305.167 21.897,305.167 22.007 C 305.167 22.064,305.066 22.111,304.943 22.111 C 304.613 22.111,301.933 23.061,301.817 23.219 C 301.762 23.294,301.596 23.373,301.450 23.395 C 301.303 23.416,301.016 23.580,300.813 23.759 C 300.585 23.959,300.496 23.987,300.582 23.833 C 300.658 23.696,300.535 23.752,300.308 23.958 C 300.081 24.165,299.806 24.333,299.698 24.333 C 299.589 24.333,299.500 24.413,299.500 24.510 C 299.500 24.607,299.429 24.642,299.342 24.589 C 299.255 24.535,299.102 24.643,299.002 24.829 C 298.903 25.015,298.744 25.167,298.649 25.167 C 298.554 25.167,298.381 25.260,298.266 25.375 C 298.150 25.490,297.860 25.729,297.621 25.907 C 297.382 26.085,297.224 26.291,297.270 26.365 C 297.316 26.439,297.285 26.500,297.202 26.500 C 297.119 26.500,296.878 26.650,296.667 26.833 C 296.455 27.017,296.326 27.167,296.378 27.167 C 296.431 27.167,296.274 27.377,296.029 27.635 C 295.421 28.273,295.064 28.735,294.821 29.195 C 294.709 29.409,294.570 29.621,294.513 29.667 C 294.425 29.738,293.992 30.582,293.915 30.833 C 293.901 30.879,293.718 31.292,293.509 31.750 C 293.300 32.208,293.118 32.733,293.106 32.917 C 293.093 33.100,293.014 33.300,292.930 33.361 C 292.845 33.422,292.770 33.740,292.763 34.069 C 292.756 34.397,292.696 34.666,292.630 34.666 C 292.564 34.666,292.554 34.779,292.606 34.917 C 292.659 35.054,292.635 35.167,292.554 35.167 C 292.385 35.167,292.375 35.227,292.238 37.167 C 292.034 40.059,292.255 43.405,292.750 44.915 C 292.871 45.283,293.020 45.827,293.081 46.125 C 293.143 46.423,293.267 46.667,293.356 46.667 C 293.446 46.667,293.481 46.730,293.433 46.807 C 293.386 46.884,293.494 47.221,293.673 47.556 C 293.853 47.891,294.000 48.275,294.000 48.408 C 294.000 48.541,294.094 48.710,294.208 48.783 C 294.323 48.857,294.417 49.007,294.417 49.118 C 294.417 49.371,295.597 51.063,296.208 51.687 C 296.460 51.945,296.667 52.233,296.667 52.328 C 296.667 52.422,296.723 52.502,296.792 52.505 C 296.860 52.508,297.367 52.919,297.917 53.419 C 298.467 53.919,298.974 54.329,299.043 54.331 C 299.113 54.332,299.480 54.558,299.860 54.833 C 300.239 55.108,300.615 55.333,300.695 55.333 C 300.775 55.333,301.156 55.533,301.541 55.776 C 302.327 56.272,305.272 57.274,306.167 57.350 C 306.487 57.377,306.825 57.449,306.917 57.510 C 307.008 57.571,307.196 57.621,307.333 57.620 C 307.471 57.620,307.958 57.674,308.417 57.741 C 312.264 58.304,317.949 57.911,320.417 56.912 C 320.692 56.801,321.010 56.744,321.125 56.786 C 321.240 56.827,321.333 56.780,321.333 56.681 C 321.333 56.581,321.466 56.500,321.627 56.500 C 321.789 56.500,322.194 56.354,322.526 56.176 C 322.858 55.998,323.176 55.898,323.232 55.954 C 323.288 56.010,323.333 55.968,323.333 55.861 C 323.333 55.754,323.474 55.667,323.646 55.667 C 323.818 55.667,324.054 55.552,324.170 55.413 C 324.286 55.273,324.419 55.197,324.465 55.243 C 324.512 55.289,324.688 55.167,324.858 54.971 C 325.028 54.776,325.167 54.665,325.167 54.724 C 325.167 54.784,325.317 54.683,325.500 54.500 C 325.683 54.317,325.932 54.167,326.053 54.167 C 326.173 54.167,326.504 53.904,326.788 53.583 C 327.072 53.263,327.363 53.000,327.434 53.000 C 327.586 53.000,329.167 51.316,329.167 51.155 C 329.167 51.095,329.390 50.791,329.664 50.481 C 329.938 50.171,330.163 49.828,330.164 49.720 C 330.165 49.612,330.262 49.425,330.378 49.304 C 330.637 49.034,331.266 47.639,331.208 47.462 C 331.185 47.391,331.227 47.333,331.300 47.333 C 331.508 47.333,332.074 45.609,332.230 44.497 C 332.250 44.358,332.308 44.170,332.360 44.080 C 333.097 42.798,333.070 36.186,332.319 34.213 C 332.222 33.958,332.150 33.731,332.158 33.708 C 332.241 33.468,331.684 31.838,331.404 31.500 C 331.290 31.363,331.171 31.100,331.140 30.917 C 331.109 30.733,331.039 30.546,330.986 30.500 C 330.932 30.454,330.672 30.042,330.408 29.583 C 329.928 28.751,329.709 28.480,328.375 27.065 C 327.985 26.652,327.667 26.243,327.667 26.157 C 327.667 26.071,327.591 26.000,327.499 26.000 C 327.349 26.000,326.712 25.496,326.060 24.863 C 325.935 24.742,325.832 24.704,325.831 24.780 C 325.829 24.855,325.773 24.841,325.706 24.749 C 325.511 24.483,324.372 23.667,324.195 23.667 C 324.107 23.667,323.483 23.395,322.809 23.063 C 321.136 22.238,319.839 21.784,319.083 21.761 C 318.900 21.755,318.659 21.691,318.547 21.618 C 318.351 21.492,317.298 21.332,316.250 21.270 C 315.975 21.254,315.669 21.190,315.570 21.128 C 315.405 21.024,309.388 21.001,309.285 21.104 M352.134 21.089 C 352.090 21.132,351.463 21.209,350.740 21.259 C 349.998 21.311,349.370 21.438,349.298 21.551 C 349.208 21.693,349.170 21.678,349.167 21.500 C 349.164 21.353,349.111 21.319,349.039 21.417 C 348.909 21.594,348.491 21.695,347.875 21.699 C 347.669 21.701,347.500 21.764,347.500 21.841 C 347.500 21.917,347.167 22.030,346.760 22.091 C 346.353 22.152,345.896 22.339,345.744 22.506 C 345.593 22.674,345.373 22.774,345.256 22.729 C 345.139 22.684,344.930 22.761,344.791 22.899 C 344.653 23.038,344.502 23.113,344.456 23.067 C 344.278 22.890,341.442 24.780,341.115 25.293 C 341.041 25.410,340.821 25.654,340.626 25.836 C 340.430 26.018,340.339 26.167,340.422 26.167 C 340.506 26.167,340.406 26.284,340.201 26.428 C 339.996 26.572,339.871 26.759,339.924 26.845 C 339.976 26.930,339.898 27.000,339.750 27.000 C 339.602 27.000,339.523 27.069,339.575 27.153 C 339.627 27.238,339.562 27.414,339.430 27.546 C 339.166 27.810,338.437 29.874,338.239 30.917 C 337.879 32.821,338.252 35.906,339.000 37.206 C 339.092 37.365,339.167 37.604,339.167 37.736 C 339.167 37.868,339.285 38.094,339.429 38.238 C 339.573 38.382,339.646 38.500,339.592 38.500 C 339.538 38.500,340.020 39.029,340.664 39.676 C 341.359 40.374,341.913 40.804,342.027 40.733 C 342.142 40.662,342.173 40.689,342.104 40.800 C 342.033 40.914,342.390 41.184,343.030 41.502 C 343.603 41.786,344.182 42.108,344.318 42.218 C 344.518 42.379,344.540 42.370,344.436 42.167 C 344.362 42.022,344.409 42.040,344.548 42.208 C 344.679 42.369,344.891 42.500,345.018 42.501 C 345.146 42.502,345.475 42.623,345.750 42.772 C 346.025 42.920,346.400 43.064,346.583 43.091 C 346.767 43.119,347.357 43.296,347.895 43.485 C 348.432 43.674,348.932 43.792,349.005 43.747 C 349.078 43.702,349.163 43.721,349.194 43.791 C 349.268 43.958,350.450 44.500,350.740 44.500 C 350.866 44.500,351.290 44.669,351.682 44.875 C 354.345 46.274,353.480 48.503,350.167 48.779 C 349.754 48.814,349.342 48.849,349.250 48.858 C 348.736 48.909,346.367 48.649,345.881 48.488 C 345.568 48.385,345.272 48.339,345.224 48.387 C 345.176 48.435,344.831 48.367,344.457 48.235 C 344.083 48.103,343.549 47.955,343.270 47.906 C 342.992 47.856,342.667 47.736,342.548 47.638 C 342.430 47.540,342.333 47.521,342.333 47.596 C 342.333 47.672,342.249 47.649,342.146 47.546 C 342.044 47.444,341.856 47.399,341.730 47.448 C 341.603 47.496,341.500 47.467,341.500 47.383 C 341.500 47.299,341.050 47.095,340.500 46.930 C 339.950 46.765,339.500 46.564,339.500 46.482 C 339.500 46.400,339.369 46.333,339.208 46.332 C 339.048 46.332,338.714 46.225,338.465 46.096 L 338.014 45.860 338.025 50.889 C 338.031 53.654,338.068 56.039,338.106 56.188 C 338.180 56.474,338.813 56.681,340.333 56.917 C 341.042 57.027,341.555 57.128,341.667 57.179 C 341.712 57.200,341.825 57.229,341.917 57.243 C 342.008 57.258,342.458 57.331,342.917 57.405 C 343.375 57.480,344.087 57.566,344.500 57.597 C 344.912 57.628,345.411 57.688,345.608 57.730 C 345.805 57.773,346.592 57.854,347.358 57.911 C 348.123 57.968,349.032 58.043,349.377 58.078 C 349.722 58.113,350.229 58.078,350.502 57.999 C 350.830 57.905,351.000 57.917,351.000 58.032 C 351.000 58.154,351.064 58.154,351.209 58.034 C 351.324 57.939,351.671 57.878,351.981 57.900 C 352.659 57.947,355.768 57.560,356.034 57.396 C 356.102 57.354,356.435 57.284,356.773 57.240 C 357.112 57.197,357.488 57.079,357.609 56.979 C 357.730 56.878,357.934 56.836,358.062 56.885 C 358.190 56.935,358.472 56.851,358.689 56.699 C 358.906 56.547,359.158 56.418,359.250 56.411 C 359.665 56.381,360.333 56.116,360.333 55.982 C 360.333 55.900,360.436 55.833,360.560 55.833 C 360.685 55.833,361.071 55.608,361.417 55.333 C 361.763 55.058,362.190 54.833,362.366 54.833 C 362.542 54.833,362.652 54.777,362.611 54.708 C 362.522 54.562,362.833 54.271,363.149 54.202 C 363.409 54.146,363.767 53.811,363.790 53.604 C 363.799 53.524,364.018 53.318,364.278 53.147 C 364.538 52.976,364.675 52.833,364.583 52.829 C 364.492 52.826,364.548 52.747,364.708 52.653 C 364.869 52.560,365.000 52.393,365.000 52.282 C 365.000 52.171,365.192 51.873,365.427 51.619 C 365.662 51.366,365.866 51.010,365.879 50.829 C 365.893 50.648,365.968 50.500,366.045 50.500 C 366.123 50.500,366.144 50.431,366.092 50.347 C 366.040 50.262,366.119 50.071,366.268 49.922 C 366.418 49.773,366.496 49.607,366.442 49.553 C 366.389 49.500,366.421 49.314,366.514 49.140 C 367.035 48.166,367.095 44.147,366.616 42.225 C 366.590 42.120,366.469 41.914,366.347 41.767 C 366.225 41.620,366.174 41.500,366.234 41.500 C 366.293 41.500,366.212 41.256,366.053 40.958 C 365.894 40.660,365.761 40.377,365.757 40.329 C 365.740 40.120,363.763 38.000,363.584 38.000 C 363.506 38.000,363.325 37.896,363.180 37.770 C 363.035 37.643,362.392 37.258,361.750 36.912 C 361.108 36.567,360.508 36.234,360.417 36.171 C 360.204 36.026,358.809 35.510,358.397 35.424 C 358.225 35.388,357.754 35.240,357.351 35.095 C 356.948 34.950,356.424 34.796,356.185 34.753 C 355.947 34.709,355.727 34.597,355.695 34.503 C 355.664 34.408,355.581 34.367,355.510 34.410 C 355.440 34.454,355.093 34.342,354.739 34.161 C 354.386 33.981,354.010 33.833,353.904 33.833 C 353.799 33.833,353.429 33.608,353.083 33.333 C 352.737 33.058,352.511 32.833,352.581 32.833 C 352.650 32.833,352.615 32.722,352.502 32.585 C 351.976 31.952,352.775 30.626,353.819 30.399 C 354.056 30.348,354.363 30.265,354.500 30.216 C 354.970 30.049,356.790 30.197,359.000 30.582 C 359.611 30.689,361.238 31.119,361.667 31.288 C 361.804 31.342,361.982 31.371,362.061 31.353 C 362.140 31.335,362.384 31.438,362.603 31.581 C 362.821 31.724,363.001 31.783,363.003 31.712 C 363.004 31.641,363.060 31.661,363.128 31.757 C 363.283 31.977,364.477 32.339,364.566 32.193 C 364.748 31.892,364.636 22.516,364.449 22.371 C 364.148 22.138,361.292 21.573,359.589 21.409 C 359.133 21.365,358.533 21.268,358.255 21.195 C 357.715 21.051,352.265 20.957,352.134 21.089 M286.629 21.257 C 286.562 21.325,286.150 21.379,285.712 21.377 C 285.275 21.375,284.842 21.433,284.750 21.506 C 284.658 21.579,284.527 21.645,284.458 21.652 C 284.390 21.660,284.315 21.672,284.292 21.679 C 284.269 21.686,284.066 21.725,283.841 21.767 C 283.615 21.808,283.390 21.896,283.341 21.963 C 283.291 22.029,282.950 22.231,282.583 22.412 C 281.457 22.968,280.035 24.104,280.125 24.375 C 280.148 24.444,280.054 24.500,279.917 24.500 C 279.779 24.500,279.667 24.590,279.667 24.699 C 279.667 24.809,279.480 25.093,279.252 25.331 C 279.025 25.569,278.577 26.285,278.258 26.923 L 277.677 28.083 277.672 24.957 L 277.667 21.830 270.292 21.873 L 262.917 21.917 262.917 39.500 L 262.917 57.083 270.292 57.127 L 277.667 57.170 277.689 49.710 C 277.715 41.142,277.735 39.964,277.863 39.743 C 277.914 39.655,277.961 39.329,277.967 39.019 C 277.974 38.708,278.059 38.375,278.156 38.277 C 278.254 38.180,278.333 37.961,278.333 37.792 C 278.333 37.411,278.763 36.562,279.182 36.111 C 279.355 35.926,279.538 35.642,279.590 35.479 C 279.642 35.317,279.830 35.137,280.009 35.081 C 280.187 35.024,280.333 34.903,280.333 34.812 C 280.333 34.721,280.408 34.693,280.500 34.750 C 280.592 34.807,280.668 34.792,280.669 34.718 C 280.671 34.537,282.137 33.880,282.917 33.711 C 283.100 33.671,283.756 33.626,284.375 33.611 C 284.993 33.596,285.499 33.536,285.500 33.478 C 285.500 33.420,285.817 33.481,286.204 33.615 C 286.591 33.748,287.247 33.928,287.662 34.014 C 288.987 34.290,289.224 34.349,289.363 34.435 C 289.438 34.482,289.500 31.590,289.500 28.010 C 289.500 22.920,289.455 21.497,289.292 21.487 C 289.177 21.480,288.933 21.441,288.750 21.400 C 287.965 21.225,286.741 21.142,286.629 21.257 M113.250 30.395 C 113.792 30.643,115.000 31.912,115.000 32.232 C 115.000 32.276,115.087 32.523,115.194 32.781 C 115.301 33.039,115.404 33.381,115.424 33.542 C 115.443 33.702,115.472 33.852,115.489 33.875 C 115.505 33.898,115.555 34.385,115.598 34.958 L 115.677 36.000 111.332 36.000 L 106.986 36.000 107.028 35.292 C 107.072 34.530,107.415 33.386,107.703 33.039 C 107.801 32.921,107.835 32.780,107.779 32.724 C 107.723 32.668,107.825 32.434,108.005 32.205 C 108.186 31.976,108.334 31.705,108.334 31.603 C 108.334 31.500,108.554 31.270,108.822 31.090 C 109.090 30.910,109.266 30.692,109.212 30.606 C 109.159 30.519,109.194 30.497,109.290 30.557 C 109.387 30.616,109.642 30.520,109.858 30.343 C 110.374 29.918,112.275 29.948,113.250 30.395 M314.366 32.133 C 314.476 32.243,314.729 32.333,314.928 32.333 C 315.292 32.333,317.265 34.124,317.091 34.297 C 317.043 34.346,317.088 34.488,317.191 34.613 C 317.294 34.737,317.393 34.969,317.409 35.128 C 317.426 35.287,317.541 35.642,317.665 35.917 C 317.960 36.572,317.968 41.271,317.676 42.333 C 317.562 42.746,317.430 43.333,317.382 43.638 C 317.333 43.943,317.191 44.232,317.065 44.280 C 316.938 44.329,316.874 44.430,316.920 44.506 C 316.967 44.582,316.928 44.691,316.833 44.750 C 316.739 44.809,316.712 44.938,316.773 45.037 C 316.840 45.145,316.807 45.170,316.692 45.099 C 316.511 44.987,316.419 45.211,316.494 45.583 C 316.513 45.675,316.475 45.697,316.410 45.632 C 316.346 45.568,316.069 45.739,315.795 46.013 C 314.787 47.021,312.010 47.525,310.830 46.915 C 310.557 46.774,310.333 46.700,310.333 46.752 C 310.333 46.847,310.072 46.654,309.499 46.136 C 309.329 45.982,308.997 45.730,308.763 45.576 C 308.528 45.423,308.372 45.239,308.416 45.168 C 308.459 45.097,308.309 44.765,308.081 44.429 C 307.853 44.093,307.667 43.672,307.667 43.493 C 307.667 43.313,307.592 43.167,307.500 43.167 C 307.408 43.167,307.346 43.110,307.362 43.042 C 307.378 42.973,307.336 42.429,307.268 41.833 C 307.097 40.330,307.046 37.658,307.187 37.571 C 307.251 37.531,307.284 37.368,307.260 37.208 C 307.236 37.048,307.284 36.692,307.367 36.417 C 307.450 36.142,307.548 35.711,307.584 35.460 C 307.666 34.895,308.468 33.500,308.710 33.500 C 308.809 33.500,308.840 33.451,308.780 33.391 C 308.615 33.226,309.823 32.402,310.625 32.133 C 311.491 31.842,314.075 31.842,314.366 32.133 M242.886 41.153 C 243.052 41.170,243.004 43.684,242.833 43.917 C 242.728 44.059,242.290 45.251,242.251 45.500 C 242.138 46.223,240.307 47.884,239.336 48.143 C 238.855 48.271,236.333 48.261,236.333 48.131 C 236.333 48.059,236.233 48.000,236.111 48.000 C 234.955 48.000,233.888 44.588,234.769 43.707 C 234.898 43.579,234.960 43.404,234.908 43.320 C 234.856 43.236,234.931 43.167,235.073 43.167 C 235.216 43.167,235.333 43.090,235.333 42.997 C 235.333 42.904,235.593 42.704,235.910 42.553 C 236.226 42.402,236.457 42.232,236.422 42.175 C 236.387 42.118,236.484 42.062,236.637 42.050 C 236.791 42.038,237.254 41.941,237.667 41.834 C 238.804 41.538,238.953 41.515,240.400 41.415 C 241.140 41.364,241.804 41.262,241.877 41.189 C 241.950 41.116,242.177 41.075,242.380 41.098 C 242.584 41.120,242.811 41.145,242.886 41.153 " stroke="none" fill="#fcd434" fill-rule="evenodd"></path><path id="path1" d="M61.900 15.000 C 61.900 16.329,61.925 16.873,61.957 16.208 C 61.989 15.544,61.989 14.456,61.957 13.792 C 61.925 13.127,61.900 13.671,61.900 15.000 M47.377 20.953 C 47.631 20.991,48.006 20.990,48.211 20.951 C 48.416 20.911,48.208 20.880,47.750 20.881 C 47.292 20.882,47.124 20.915,47.377 20.953 M64.708 20.953 C 64.960 20.991,65.373 20.991,65.625 20.953 C 65.877 20.915,65.671 20.883,65.167 20.883 C 64.662 20.883,64.456 20.915,64.708 20.953 M49.542 63.958 C 53.369 63.983,59.631 63.983,63.458 63.958 C 67.285 63.933,64.154 63.913,56.500 63.913 C 48.846 63.913,45.715 63.933,49.542 63.958 " stroke="none" fill="#fcda5f" fill-rule="evenodd"></path><path id="path2" d="M55.500 5.167 C 54.815 5.542,54.967 5.606,55.725 5.261 C 56.014 5.130,56.400 4.989,56.583 4.947 C 56.849 4.887,56.833 4.870,56.500 4.860 C 56.271 4.853,55.821 4.991,55.500 5.167 M53.528 6.247 C 52.902 6.592,52.700 6.875,53.289 6.580 C 53.585 6.433,53.870 6.242,53.923 6.156 C 54.038 5.970,54.026 5.973,53.528 6.247 M51.250 7.579 C 50.883 7.805,50.635 7.992,50.699 7.995 C 50.843 8.001,52.000 7.325,52.000 7.234 C 52.000 7.125,51.949 7.149,51.250 7.579 M61.084 7.334 C 61.133 7.414,61.398 7.591,61.673 7.728 C 61.948 7.865,62.132 7.912,62.083 7.833 C 62.034 7.753,61.769 7.576,61.494 7.439 C 61.219 7.302,61.035 7.255,61.084 7.334 M62.347 8.067 C 62.511 8.227,64.401 9.195,64.250 9.043 C 64.057 8.848,62.539 8.000,62.383 8.000 C 62.325 8.000,62.309 8.030,62.347 8.067 M64.500 9.229 C 64.500 9.268,64.767 9.458,65.093 9.650 C 65.420 9.843,65.640 9.925,65.583 9.832 C 65.471 9.652,64.500 9.111,64.500 9.229 M70.708 11.615 C 70.869 11.657,71.131 11.657,71.292 11.615 C 71.452 11.573,71.321 11.539,71.000 11.539 C 70.679 11.539,70.548 11.573,70.708 11.615 M66.913 12.007 C 66.882 12.057,67.071 12.114,67.334 12.134 C 67.597 12.154,67.852 12.105,67.901 12.026 C 67.950 11.947,67.760 11.890,67.480 11.899 C 67.199 11.909,66.944 11.957,66.913 12.007 M43.435 18.137 C 43.389 18.212,43.572 18.241,43.842 18.201 C 44.112 18.161,44.333 18.100,44.333 18.064 C 44.333 17.937,43.518 18.003,43.435 18.137 M37.833 18.841 C 37.651 18.964,37.718 18.980,38.083 18.898 C 38.696 18.761,38.829 18.666,38.403 18.669 C 38.227 18.671,37.971 18.748,37.833 18.841 M74.443 18.792 C 74.401 18.860,74.581 18.925,74.845 18.934 C 75.108 18.944,75.283 18.888,75.235 18.809 C 75.126 18.633,74.548 18.621,74.443 18.792 M46.500 20.639 C 46.500 20.885,46.844 20.934,47.750 20.814 L 48.583 20.705 47.741 20.716 C 47.278 20.722,46.809 20.671,46.700 20.604 C 46.590 20.536,46.500 20.552,46.500 20.639 M64.278 20.778 C 64.217 20.839,64.168 20.970,64.169 21.069 C 64.171 21.185,64.217 21.178,64.297 21.052 C 64.367 20.944,64.797 20.826,65.253 20.791 L 66.083 20.727 65.236 20.697 C 64.770 20.680,64.339 20.717,64.278 20.778 M45.398 43.384 C 45.381 43.880,45.392 43.890,45.551 43.536 C 45.655 43.305,45.662 43.096,45.570 43.004 C 45.477 42.911,45.409 43.062,45.398 43.384 M42.654 62.708 C 42.532 63.119,42.538 63.500,42.666 63.500 C 42.756 63.500,42.814 63.313,42.795 63.083 C 42.766 62.730,42.700 62.554,42.654 62.708 " stroke="none" fill="#fcd446" fill-rule="evenodd"></path><path id="path3" d="M194.667 15.917 C 194.667 21.860,194.706 26.683,194.755 26.634 C 194.865 26.524,194.858 5.303,194.748 5.192 C 194.703 5.148,194.667 9.974,194.667 15.917 M142.053 7.792 C 144.604 7.817,148.729 7.817,151.220 7.792 C 153.712 7.766,151.625 7.744,146.583 7.744 C 141.542 7.744,139.503 7.766,142.053 7.792 M87.292 9.505 L 87.667 9.656 87.706 15.120 L 87.745 20.583 87.794 15.333 C 87.848 9.522,87.832 9.328,87.288 9.344 L 86.917 9.354 87.292 9.505 M50.967 15.000 C 50.939 16.284,50.973 17.334,51.042 17.334 C 51.110 17.333,51.167 16.283,51.167 15.000 C 51.167 11.982,51.032 11.982,50.967 15.000 M51.613 18.958 C 54.196 18.984,58.471 18.984,61.113 18.958 C 63.755 18.932,61.642 18.911,56.417 18.911 C 51.192 18.911,49.030 18.932,51.613 18.958 M66.705 20.000 C 66.705 20.321,66.740 20.452,66.782 20.292 C 66.823 20.131,66.823 19.869,66.782 19.708 C 66.740 19.548,66.705 19.679,66.705 20.000 M277.736 24.917 C 277.736 26.658,277.761 27.348,277.791 26.450 C 277.821 25.551,277.821 24.126,277.791 23.283 C 277.761 22.440,277.736 23.175,277.736 24.917 M327.667 26.201 C 327.667 26.254,327.892 26.539,328.167 26.833 C 328.442 27.128,328.667 27.300,328.667 27.215 C 328.667 27.131,328.442 26.847,328.167 26.583 C 327.892 26.320,327.667 26.148,327.667 26.201 M364.548 27.750 C 364.549 28.208,364.581 28.376,364.620 28.123 C 364.658 27.869,364.657 27.494,364.617 27.289 C 364.578 27.084,364.546 27.292,364.548 27.750 M127.681 31.500 C 127.686 31.637,127.755 31.900,127.833 32.083 L 127.977 32.417 127.986 32.083 C 127.991 31.900,127.922 31.637,127.833 31.500 C 127.690 31.278,127.673 31.278,127.681 31.500 M309.023 33.006 C 308.507 33.436,308.740 33.431,309.288 33.000 C 309.521 32.817,309.645 32.669,309.564 32.672 C 309.483 32.675,309.240 32.825,309.023 33.006 M307.732 34.935 C 307.594 35.265,307.511 35.566,307.548 35.603 C 307.584 35.640,307.733 35.369,307.877 35.002 C 308.204 34.171,308.076 34.111,307.732 34.935 M317.667 36.573 C 317.667 36.797,317.728 37.018,317.803 37.065 C 317.878 37.111,317.907 36.928,317.868 36.658 C 317.780 36.062,317.667 36.015,317.667 36.573 M194.705 37.500 C 194.705 37.821,194.740 37.952,194.782 37.792 C 194.823 37.631,194.823 37.369,194.782 37.208 C 194.740 37.048,194.705 37.179,194.705 37.500 M202.577 44.750 C 202.577 48.967,202.598 50.668,202.625 48.530 C 202.651 46.393,202.651 42.943,202.625 40.864 C 202.598 38.784,202.577 40.533,202.577 44.750 M216.879 39.667 C 216.879 40.079,216.911 40.248,216.951 40.042 C 216.991 39.835,216.991 39.498,216.951 39.292 C 216.911 39.085,216.879 39.254,216.879 39.667 M194.744 48.167 C 194.744 53.163,194.766 55.206,194.792 52.708 C 194.817 50.210,194.817 46.123,194.792 43.625 C 194.766 41.127,194.744 43.171,194.744 48.167 M277.743 49.667 C 277.743 53.837,277.765 55.544,277.792 53.458 C 277.818 51.373,277.818 47.960,277.792 45.875 C 277.765 43.790,277.743 45.496,277.743 49.667 M107.000 43.792 C 107.000 43.905,112.796 43.903,119.833 43.787 C 121.346 43.762,119.077 43.725,114.792 43.704 C 110.506 43.683,107.000 43.723,107.000 43.792 M311.458 47.118 C 311.665 47.157,312.002 47.157,312.208 47.118 C 312.415 47.078,312.246 47.045,311.833 47.045 C 311.421 47.045,311.252 47.078,311.458 47.118 M202.550 54.167 C 202.550 54.671,202.581 54.877,202.619 54.625 C 202.658 54.373,202.658 53.960,202.619 53.708 C 202.581 53.456,202.550 53.663,202.550 54.167 M240.685 54.676 C 240.465 54.859,240.321 55.044,240.365 55.087 C 240.408 55.130,240.619 54.978,240.834 54.749 C 241.302 54.252,241.234 54.219,240.685 54.676 M361.626 55.208 C 361.410 55.415,361.350 55.500,361.492 55.398 C 361.634 55.297,361.900 55.130,362.083 55.028 C 362.267 54.927,362.327 54.841,362.218 54.838 C 362.108 54.836,361.842 55.002,361.626 55.208 M246.292 57.291 C 248.148 57.318,251.185 57.318,253.042 57.291 C 254.898 57.265,253.379 57.243,249.667 57.243 C 245.954 57.243,244.435 57.265,246.292 57.291 M350.500 58.000 L 350.083 58.133 350.542 58.150 C 350.794 58.159,351.000 58.092,351.000 58.000 C 351.000 57.908,350.981 57.841,350.958 57.850 C 350.935 57.859,350.729 57.927,350.500 58.000 " stroke="none" fill="#fccc34" fill-rule="evenodd"></path><path id="path4" d="M42.142 11.709 C 42.226 11.793,42.472 11.834,42.689 11.800 C 43.023 11.747,42.999 11.724,42.536 11.647 C 42.205 11.592,42.050 11.616,42.142 11.709 M46.268 19.764 C 46.212 19.910,46.236 20.153,46.322 20.306 C 46.443 20.521,46.475 20.461,46.464 20.042 C 46.447 19.432,46.413 19.384,46.268 19.764 M48.250 23.167 C 48.250 23.424,48.306 23.600,48.375 23.558 C 48.444 23.515,48.500 23.339,48.500 23.167 C 48.500 22.994,48.444 22.818,48.375 22.776 C 48.306 22.733,48.250 22.909,48.250 23.167 M47.929 25.929 C 47.867 26.173,47.849 26.405,47.889 26.444 C 47.928 26.483,48.010 26.316,48.071 26.071 C 48.133 25.827,48.151 25.595,48.111 25.556 C 48.072 25.517,47.990 25.684,47.929 25.929 M49.554 63.792 C 53.388 63.817,59.613 63.817,63.387 63.792 C 67.162 63.767,64.025 63.746,56.417 63.746 C 48.808 63.746,45.720 63.767,49.554 63.792 " stroke="none" fill="#fcd43c" fill-rule="evenodd"></path></g></svg>